<mxfile host="Electron" agent="Mozilla/5.0 (Windows NT 10.0; Win64; x64) AppleWebKit/537.36 (KHTML, like Gecko) draw.io/24.7.17 Chrome/128.0.6613.36 Electron/32.0.1 Safari/537.36" version="24.7.17">
  <diagram id="C5RBs43oDa-KdzZeNtuy" name="Page-1">
    <mxGraphModel dx="5250" dy="3105" grid="1" gridSize="10" guides="1" tooltips="1" connect="1" arrows="1" fold="1" page="1" pageScale="1" pageWidth="2339" pageHeight="3300" math="0" shadow="0">
      <root>
        <mxCell id="WIyWlLk6GJQsqaUBKTNV-0" />
        <mxCell id="WIyWlLk6GJQsqaUBKTNV-1" parent="WIyWlLk6GJQsqaUBKTNV-0" />
        <mxCell id="5-mV9dHDalzk_5O0M6KC-0" value="ConnectHub" style="swimlane;fontStyle=1;align=center;verticalAlign=top;childLayout=stackLayout;horizontal=1;startSize=26;horizontalStack=0;resizeParent=1;resizeParentMax=0;resizeLast=0;collapsible=1;marginBottom=0;whiteSpace=wrap;html=1;" parent="WIyWlLk6GJQsqaUBKTNV-1" vertex="1">
          <mxGeometry x="100" y="184" width="120" height="52" as="geometry" />
        </mxCell>
        <mxCell id="5-mV9dHDalzk_5O0M6KC-3" value="+ Main(String): void" style="text;strokeColor=none;fillColor=none;align=left;verticalAlign=top;spacingLeft=4;spacingRight=4;overflow=hidden;rotatable=0;points=[[0,0.5],[1,0.5]];portConstraint=eastwest;whiteSpace=wrap;html=1;" parent="5-mV9dHDalzk_5O0M6KC-0" vertex="1">
          <mxGeometry y="26" width="120" height="26" as="geometry" />
        </mxCell>
        <mxCell id="5-mV9dHDalzk_5O0M6KC-4" value="FriendshipManagement" style="swimlane;fontStyle=1;align=center;verticalAlign=top;childLayout=stackLayout;horizontal=1;startSize=26;horizontalStack=0;resizeParent=1;resizeParentMax=0;resizeLast=0;collapsible=1;marginBottom=0;whiteSpace=wrap;html=1;" parent="WIyWlLk6GJQsqaUBKTNV-1" vertex="1">
          <mxGeometry x="330" y="159" width="310" height="130" as="geometry" />
        </mxCell>
        <mxCell id="5-mV9dHDalzk_5O0M6KC-7" value="+&amp;nbsp;sendFriendRequest(User,User): boolean&lt;div&gt;&lt;div&gt;+&amp;nbsp;acceptFriendRequest(User,FriendRequest): boolean&lt;/div&gt;&lt;div&gt;+&amp;nbsp;declineFriendRequest(User,FriendRequest): boolean&lt;/div&gt;&lt;div&gt;+ blockUser(User,User): void&lt;/div&gt;&lt;div&gt;+ removeFriend(User,User): void&lt;/div&gt;&lt;div&gt;+ suggestFriends(User):&amp;nbsp;&lt;span style=&quot;background-color: initial;&quot;&gt;&amp;nbsp;Set&amp;lt;User&amp;gt;&lt;/span&gt;&lt;/div&gt;&lt;/div&gt;" style="text;strokeColor=none;fillColor=none;align=left;verticalAlign=top;spacingLeft=4;spacingRight=4;overflow=hidden;rotatable=0;points=[[0,0.5],[1,0.5]];portConstraint=eastwest;whiteSpace=wrap;html=1;" parent="5-mV9dHDalzk_5O0M6KC-4" vertex="1">
          <mxGeometry y="26" width="310" height="104" as="geometry" />
        </mxCell>
        <mxCell id="5-mV9dHDalzk_5O0M6KC-8" value="FriendRequest" style="swimlane;fontStyle=1;align=center;verticalAlign=top;childLayout=stackLayout;horizontal=1;startSize=26;horizontalStack=0;resizeParent=1;resizeParentMax=0;resizeLast=0;collapsible=1;marginBottom=0;whiteSpace=wrap;html=1;" parent="WIyWlLk6GJQsqaUBKTNV-1" vertex="1">
          <mxGeometry x="70" y="330" width="210" height="290" as="geometry" />
        </mxCell>
        <mxCell id="5-mV9dHDalzk_5O0M6KC-9" value="- requestSender: User&lt;div&gt;-&amp;nbsp;requestReceiver: User&lt;/div&gt;&lt;div&gt;-&amp;nbsp;requestStatus:&amp;nbsp;Status&lt;/div&gt;" style="text;strokeColor=none;fillColor=none;align=left;verticalAlign=top;spacingLeft=4;spacingRight=4;overflow=hidden;rotatable=0;points=[[0,0.5],[1,0.5]];portConstraint=eastwest;whiteSpace=wrap;html=1;" parent="5-mV9dHDalzk_5O0M6KC-8" vertex="1">
          <mxGeometry y="26" width="210" height="54" as="geometry" />
        </mxCell>
        <mxCell id="5-mV9dHDalzk_5O0M6KC-17" value="" style="line;strokeWidth=1;fillColor=none;align=left;verticalAlign=middle;spacingTop=-1;spacingLeft=3;spacingRight=3;rotatable=0;labelPosition=right;points=[];portConstraint=eastwest;strokeColor=inherit;" parent="5-mV9dHDalzk_5O0M6KC-8" vertex="1">
          <mxGeometry y="80" width="210" height="8" as="geometry" />
        </mxCell>
        <mxCell id="5-mV9dHDalzk_5O0M6KC-16" value="&amp;lt;&amp;lt;enumeration&amp;gt;&amp;gt;&lt;div&gt;Status&lt;/div&gt;" style="text;strokeColor=none;fillColor=none;align=center;verticalAlign=top;spacingLeft=4;spacingRight=4;overflow=hidden;rotatable=0;points=[[0,0.5],[1,0.5]];portConstraint=eastwest;whiteSpace=wrap;html=1;" parent="5-mV9dHDalzk_5O0M6KC-8" vertex="1">
          <mxGeometry y="88" width="210" height="32" as="geometry" />
        </mxCell>
        <mxCell id="5-mV9dHDalzk_5O0M6KC-19" value="&lt;span&gt;+&amp;nbsp;&lt;/span&gt;&lt;span&gt;Accepted&amp;nbsp;&lt;/span&gt;&lt;div&gt;&lt;span style=&quot;background-color: initial;&quot;&gt;+&amp;nbsp;&lt;/span&gt;&lt;span style=&quot;background-color: initial;&quot;&gt;Declined&amp;nbsp;&lt;/span&gt;&lt;div&gt;&lt;span&gt;+&amp;nbsp;&lt;/span&gt;&lt;span&gt;Pending&amp;nbsp;&amp;nbsp;&lt;/span&gt;&lt;/div&gt;&lt;/div&gt;" style="text;strokeColor=none;fillColor=none;align=left;verticalAlign=top;spacingLeft=4;spacingRight=4;overflow=hidden;rotatable=0;points=[[0,0.5],[1,0.5]];portConstraint=eastwest;whiteSpace=wrap;html=1;" parent="5-mV9dHDalzk_5O0M6KC-8" vertex="1">
          <mxGeometry y="120" width="210" height="50" as="geometry" />
        </mxCell>
        <mxCell id="5-mV9dHDalzk_5O0M6KC-18" value="" style="line;strokeWidth=1;fillColor=none;align=left;verticalAlign=middle;spacingTop=-1;spacingLeft=3;spacingRight=3;rotatable=0;labelPosition=right;points=[];portConstraint=eastwest;strokeColor=inherit;" parent="5-mV9dHDalzk_5O0M6KC-8" vertex="1">
          <mxGeometry y="170" width="210" height="8" as="geometry" />
        </mxCell>
        <mxCell id="5-mV9dHDalzk_5O0M6KC-11" value="+ FriendRequest(User, User, Status):&lt;div&gt;+&amp;nbsp;getRequestSender(): User&lt;/div&gt;&lt;div&gt;+&amp;nbsp;getRequestReciever(): User&lt;/div&gt;&lt;div&gt;+ getRequestStatus():&amp;nbsp;&lt;span style=&quot;background-color: initial;&quot;&gt;&amp;nbsp;Status&lt;/span&gt;&lt;/div&gt;&lt;div&gt;&lt;span style=&quot;background-color: initial;&quot;&gt;+&amp;nbsp;&lt;/span&gt;&lt;span style=&quot;background-color: initial;&quot;&gt;setRequestSender(User): void&lt;/span&gt;&lt;/div&gt;&lt;div&gt;&lt;span style=&quot;background-color: initial;&quot;&gt;+&amp;nbsp;&lt;/span&gt;&lt;span style=&quot;background-color: initial;&quot;&gt;setrequestReciever(User): void&lt;/span&gt;&lt;/div&gt;&lt;div&gt;&lt;span style=&quot;background-color: initial;&quot;&gt;+&amp;nbsp;&lt;/span&gt;&lt;span style=&quot;background-color: initial;&quot;&gt;setRequestStatus(Status): void&lt;/span&gt;&lt;/div&gt;" style="text;strokeColor=none;fillColor=none;align=left;verticalAlign=top;spacingLeft=4;spacingRight=4;overflow=hidden;rotatable=0;points=[[0,0.5],[1,0.5]];portConstraint=eastwest;whiteSpace=wrap;html=1;" parent="5-mV9dHDalzk_5O0M6KC-8" vertex="1">
          <mxGeometry y="178" width="210" height="112" as="geometry" />
        </mxCell>
        <mxCell id="5-mV9dHDalzk_5O0M6KC-20" value="&lt;u&gt;HashingUtil&lt;/u&gt;" style="swimlane;fontStyle=1;align=center;verticalAlign=top;childLayout=stackLayout;horizontal=1;startSize=26;horizontalStack=0;resizeParent=1;resizeParentMax=0;resizeLast=0;collapsible=1;marginBottom=0;whiteSpace=wrap;html=1;" parent="WIyWlLk6GJQsqaUBKTNV-1" vertex="1">
          <mxGeometry x="350" y="50" width="270" height="56" as="geometry" />
        </mxCell>
        <mxCell id="5-mV9dHDalzk_5O0M6KC-23" value="+ generateUserHashedPassword(String): string" style="text;strokeColor=none;fillColor=none;align=left;verticalAlign=top;spacingLeft=4;spacingRight=4;overflow=hidden;rotatable=0;points=[[0,0.5],[1,0.5]];portConstraint=eastwest;whiteSpace=wrap;html=1;" parent="5-mV9dHDalzk_5O0M6KC-20" vertex="1">
          <mxGeometry y="26" width="270" height="30" as="geometry" />
        </mxCell>
        <mxCell id="5-mV9dHDalzk_5O0M6KC-24" value="MainUser" style="swimlane;fontStyle=1;align=center;verticalAlign=top;childLayout=stackLayout;horizontal=1;startSize=26;horizontalStack=0;resizeParent=1;resizeParentMax=0;resizeLast=0;collapsible=1;marginBottom=0;whiteSpace=wrap;html=1;" parent="WIyWlLk6GJQsqaUBKTNV-1" vertex="1">
          <mxGeometry x="95" y="23" width="160" height="100" as="geometry" />
        </mxCell>
        <mxCell id="5-mV9dHDalzk_5O0M6KC-25" value="-&amp;nbsp;&lt;u&gt;mainUser&lt;/u&gt; : User" style="text;strokeColor=none;fillColor=none;align=left;verticalAlign=top;spacingLeft=4;spacingRight=4;overflow=hidden;rotatable=0;points=[[0,0.5],[1,0.5]];portConstraint=eastwest;whiteSpace=wrap;html=1;" parent="5-mV9dHDalzk_5O0M6KC-24" vertex="1">
          <mxGeometry y="26" width="160" height="26" as="geometry" />
        </mxCell>
        <mxCell id="5-mV9dHDalzk_5O0M6KC-26" value="" style="line;strokeWidth=1;fillColor=none;align=left;verticalAlign=middle;spacingTop=-1;spacingLeft=3;spacingRight=3;rotatable=0;labelPosition=right;points=[];portConstraint=eastwest;strokeColor=inherit;" parent="5-mV9dHDalzk_5O0M6KC-24" vertex="1">
          <mxGeometry y="52" width="160" height="8" as="geometry" />
        </mxCell>
        <mxCell id="5-mV9dHDalzk_5O0M6KC-27" value="+&amp;nbsp;&lt;u&gt;setMainUser&lt;/u&gt;(User): void&lt;div&gt;+&amp;nbsp;&lt;u&gt;getMainUser&lt;/u&gt;(): User&lt;/div&gt;" style="text;strokeColor=none;fillColor=none;align=left;verticalAlign=top;spacingLeft=4;spacingRight=4;overflow=hidden;rotatable=0;points=[[0,0.5],[1,0.5]];portConstraint=eastwest;whiteSpace=wrap;html=1;" parent="5-mV9dHDalzk_5O0M6KC-24" vertex="1">
          <mxGeometry y="60" width="160" height="40" as="geometry" />
        </mxCell>
        <mxCell id="5-mV9dHDalzk_5O0M6KC-36" value="User" style="swimlane;fontStyle=1;align=center;verticalAlign=top;childLayout=stackLayout;horizontal=1;startSize=26;horizontalStack=0;resizeParent=1;resizeParentMax=0;resizeLast=0;collapsible=1;marginBottom=0;whiteSpace=wrap;html=1;" parent="WIyWlLk6GJQsqaUBKTNV-1" vertex="1">
          <mxGeometry x="340" y="330" width="330" height="530" as="geometry" />
        </mxCell>
        <mxCell id="5-mV9dHDalzk_5O0M6KC-37" value="&lt;span&gt;- &lt;/span&gt;&lt;span&gt;userId: &lt;/span&gt;&lt;span&gt;String&lt;/span&gt;&lt;span&gt;&lt;br&gt;&lt;/span&gt;&lt;span&gt;- &lt;/span&gt;&lt;span&gt;email: &lt;/span&gt;&lt;span&gt;String&lt;/span&gt;&lt;span&gt;&lt;br&gt;&lt;/span&gt;&lt;span&gt;- &lt;/span&gt;&lt;span&gt;username: &lt;/span&gt;&lt;span&gt;String&lt;/span&gt;&lt;span&gt;&lt;br&gt;&lt;/span&gt;&lt;span&gt;- &lt;/span&gt;&lt;span&gt;password: &lt;/span&gt;&lt;span&gt;String&lt;/span&gt;&lt;span&gt;&lt;br&gt;&lt;/span&gt;&lt;span&gt;- &lt;/span&gt;&lt;span&gt;dateOfBirth: &lt;/span&gt;&lt;span&gt;String&lt;/span&gt;&lt;span&gt;&lt;br&gt;&lt;/span&gt;&lt;span&gt;- &lt;/span&gt;&lt;span&gt;status: &lt;/span&gt;&lt;span&gt;String&lt;/span&gt;&lt;span&gt;&lt;br&gt;&lt;/span&gt;&lt;span&gt;- &lt;/span&gt;&lt;span&gt;friends: &lt;/span&gt;&lt;span&gt;Set&amp;lt;User&amp;gt;&lt;/span&gt;&lt;span&gt;&lt;br&gt;&lt;/span&gt;&lt;span&gt;- &lt;/span&gt;&lt;span&gt;blockedUsers: &lt;/span&gt;&lt;span&gt;Set&amp;lt;User&amp;gt;&lt;/span&gt;&lt;span&gt;&lt;br&gt;&lt;/span&gt;&lt;span&gt;- &lt;/span&gt;&lt;span&gt;sentFriendRequests: &lt;/span&gt;&lt;span&gt;Set&amp;lt;FriendRequest&amp;gt;&lt;/span&gt;&lt;span&gt;&lt;br&gt;&lt;/span&gt;&lt;span&gt;- &lt;/span&gt;&lt;span&gt;receivedFriendRequests: &lt;/span&gt;&lt;span&gt;Set&amp;lt;FriendRequest&amp;gt;&lt;/span&gt;" style="text;strokeColor=none;fillColor=none;align=left;verticalAlign=top;spacingLeft=4;spacingRight=4;overflow=hidden;rotatable=0;points=[[0,0.5],[1,0.5]];portConstraint=eastwest;whiteSpace=wrap;html=1;" parent="5-mV9dHDalzk_5O0M6KC-36" vertex="1">
          <mxGeometry y="26" width="330" height="154" as="geometry" />
        </mxCell>
        <mxCell id="5-mV9dHDalzk_5O0M6KC-38" value="" style="line;strokeWidth=1;fillColor=none;align=left;verticalAlign=middle;spacingTop=-1;spacingLeft=3;spacingRight=3;rotatable=0;labelPosition=right;points=[];portConstraint=eastwest;strokeColor=inherit;" parent="5-mV9dHDalzk_5O0M6KC-36" vertex="1">
          <mxGeometry y="180" width="330" height="8" as="geometry" />
        </mxCell>
        <mxCell id="5-mV9dHDalzk_5O0M6KC-39" value="&lt;span&gt;+ &lt;/span&gt;&lt;span&gt;getUserId(): &lt;/span&gt;&lt;span&gt;String&lt;/span&gt;&lt;div&gt;&lt;span&gt;+ &lt;/span&gt;&lt;span&gt;getUserEmail(): &lt;/span&gt;&lt;span&gt;String&amp;nbsp;&lt;/span&gt;&lt;/div&gt;&lt;div&gt;&lt;span&gt;&lt;/span&gt;&lt;span&gt;+ &lt;/span&gt;&lt;span&gt;getUsername(): &lt;/span&gt;&lt;span&gt;String&lt;/span&gt;&lt;/div&gt;&lt;div&gt;&lt;span&gt;+ &lt;/span&gt;&lt;span&gt;getUserDateOfBirth(): &lt;/span&gt;&lt;span&gt;String&amp;nbsp;&lt;/span&gt;&lt;/div&gt;&lt;div&gt;&lt;span&gt;+ &lt;/span&gt;&lt;span&gt;getUserStatus(): &lt;/span&gt;&lt;span&gt;String&amp;nbsp;&lt;/span&gt;&lt;/div&gt;&lt;div&gt;&lt;span&gt;+ &lt;/span&gt;&lt;span&gt;getUserPassword(): &lt;/span&gt;&lt;span&gt;String&amp;nbsp;&lt;/span&gt;&lt;/div&gt;&lt;div&gt;&lt;span&gt;+ &lt;/span&gt;&lt;span&gt;getUserFriends(): &lt;/span&gt;&lt;span&gt;Set&amp;lt;User&amp;gt;&amp;nbsp;&lt;/span&gt;&lt;/div&gt;&lt;div&gt;&lt;span&gt;+ &lt;/span&gt;&lt;span&gt;getUserBlockedUsers(): &lt;/span&gt;&lt;span&gt;Set&amp;lt;User&amp;gt;&amp;nbsp;&lt;/span&gt;&lt;/div&gt;&lt;div&gt;&lt;span&gt;+ &lt;/span&gt;&lt;span&gt;getUserSentFriendRequests(): &lt;/span&gt;&lt;span&gt;Set&amp;lt;FriendRequest&amp;gt;&amp;nbsp;&lt;/span&gt;&lt;/div&gt;&lt;div&gt;&lt;span&gt;+ &lt;/span&gt;&lt;span&gt;getUserReceivedFriendRequests(): &lt;/span&gt;&lt;span&gt;Set&amp;lt;FriendRequest&amp;gt; &lt;/span&gt;&lt;span&gt;&amp;nbsp;&lt;/span&gt;&lt;/div&gt;&lt;div&gt;&lt;span&gt;+ &lt;/span&gt;&lt;span&gt;setUserPassword(unHashedPassword: &lt;/span&gt;&lt;span&gt;String): &lt;/span&gt;&lt;span&gt;void&amp;nbsp;&lt;/span&gt;&lt;/div&gt;&lt;div&gt;&lt;span&gt;+ &lt;/span&gt;&lt;span&gt;setUserDateOfBirth(date: &lt;/span&gt;&lt;span&gt;LocalDate): &lt;/span&gt;&lt;span&gt;void&amp;nbsp;&lt;/span&gt;&lt;/div&gt;&lt;div&gt;&lt;span&gt;+ &lt;/span&gt;&lt;span&gt;setUsername(username: &lt;/span&gt;&lt;span&gt;String): &lt;/span&gt;&lt;span&gt;void&amp;nbsp;&lt;/span&gt;&lt;/div&gt;&lt;div&gt;&lt;span&gt;+ &lt;/span&gt;&lt;span&gt;setUserStatus(status: &lt;/span&gt;&lt;span&gt;String): &lt;/span&gt;&lt;span&gt;void&amp;nbsp;&lt;/span&gt;&lt;/div&gt;&lt;div&gt;&lt;span&gt;+ &lt;/span&gt;&lt;span&gt;setUserEmail(email: &lt;/span&gt;&lt;span&gt;String): &lt;/span&gt;&lt;span&gt;boolean &lt;/span&gt;&lt;span&gt;&amp;nbsp;&lt;/span&gt;&lt;/div&gt;&lt;div&gt;&lt;span&gt;+ &lt;/span&gt;&lt;span&gt;userLogout(): &lt;/span&gt;&lt;span&gt;void &lt;/span&gt;&lt;span&gt;&amp;nbsp;&lt;/span&gt;&lt;/div&gt;&lt;div&gt;&lt;span&gt;+ &lt;/span&gt;&lt;span&gt;toJSON(): &lt;/span&gt;&lt;span&gt;JSONObject&amp;nbsp;&lt;/span&gt;&lt;/div&gt;&lt;div&gt;&lt;span&gt;+ &lt;/span&gt;&lt;span&gt;sendFriendRequest(receiver: &lt;/span&gt;&lt;span&gt;User): &lt;/span&gt;&lt;span&gt;void &lt;/span&gt;&lt;span&gt;&amp;nbsp;&lt;/span&gt;&lt;/div&gt;&lt;div&gt;&lt;span&gt;+ &lt;/span&gt;&lt;span&gt;acceptFriendRequest(request: &lt;/span&gt;&lt;span&gt;FriendRequest): &lt;/span&gt;&lt;span&gt;boolean&amp;nbsp;&lt;/span&gt;&lt;/div&gt;&lt;div&gt;&lt;span&gt;+ &lt;/span&gt;&lt;span&gt;declineFriendRequest(request: &lt;/span&gt;&lt;span&gt;FriendRequest): &lt;/span&gt;&lt;span&gt;boolean &lt;/span&gt;&lt;span&gt;&amp;nbsp;&lt;/span&gt;&lt;/div&gt;&lt;div&gt;&lt;span&gt;+ &lt;/span&gt;&lt;span&gt;blockUser(user: &lt;/span&gt;&lt;span&gt;User): &lt;/span&gt;&lt;span&gt;void&amp;nbsp;&lt;/span&gt;&lt;/div&gt;&lt;div&gt;&lt;span&gt;+ &lt;/span&gt;&lt;span&gt;removeFriend(user: &lt;/span&gt;&lt;span&gt;User): &lt;/span&gt;&lt;span&gt;void &lt;/span&gt;&lt;span&gt;&amp;nbsp;&lt;/span&gt;&lt;/div&gt;&lt;div&gt;&lt;span&gt;+ &lt;/span&gt;&lt;span&gt;isUserBlocked(user: &lt;/span&gt;&lt;span&gt;User): &lt;/span&gt;&lt;span&gt;boolean&amp;nbsp;&lt;/span&gt;&lt;/div&gt;" style="text;strokeColor=none;fillColor=none;align=left;verticalAlign=top;spacingLeft=4;spacingRight=4;overflow=hidden;rotatable=0;points=[[0,0.5],[1,0.5]];portConstraint=eastwest;whiteSpace=wrap;html=1;" parent="5-mV9dHDalzk_5O0M6KC-36" vertex="1">
          <mxGeometry y="188" width="330" height="342" as="geometry" />
        </mxCell>
        <mxCell id="5-mV9dHDalzk_5O0M6KC-40" value="UserDatabase" style="swimlane;fontStyle=1;align=center;verticalAlign=top;childLayout=stackLayout;horizontal=1;startSize=26;horizontalStack=0;resizeParent=1;resizeParentMax=0;resizeLast=0;collapsible=1;marginBottom=0;whiteSpace=wrap;html=1;" parent="WIyWlLk6GJQsqaUBKTNV-1" vertex="1">
          <mxGeometry x="785" y="330" width="310" height="260" as="geometry" />
        </mxCell>
        <mxCell id="5-mV9dHDalzk_5O0M6KC-41" value="&lt;span&gt;- &lt;/span&gt;&lt;span&gt;user_database: &lt;/span&gt;&lt;span&gt;UserDatabase&amp;nbsp;&lt;/span&gt;&lt;span&gt;&lt;br&gt;&lt;/span&gt;&lt;span&gt;- &lt;/span&gt;&lt;span&gt;users: &lt;/span&gt;&lt;span&gt;ArrayList&amp;lt;User&amp;gt;&lt;/span&gt;&lt;span&gt;&lt;br&gt;&lt;/span&gt;&lt;span&gt;- &lt;/span&gt;&lt;span&gt;uniqueCounter: &lt;/span&gt;&lt;span&gt;int&amp;nbsp;&lt;/span&gt;" style="text;strokeColor=none;fillColor=none;align=left;verticalAlign=top;spacingLeft=4;spacingRight=4;overflow=hidden;rotatable=0;points=[[0,0.5],[1,0.5]];portConstraint=eastwest;whiteSpace=wrap;html=1;" parent="5-mV9dHDalzk_5O0M6KC-40" vertex="1">
          <mxGeometry y="26" width="310" height="54" as="geometry" />
        </mxCell>
        <mxCell id="5-mV9dHDalzk_5O0M6KC-42" value="" style="line;strokeWidth=1;fillColor=none;align=left;verticalAlign=middle;spacingTop=-1;spacingLeft=3;spacingRight=3;rotatable=0;labelPosition=right;points=[];portConstraint=eastwest;strokeColor=inherit;" parent="5-mV9dHDalzk_5O0M6KC-40" vertex="1">
          <mxGeometry y="80" width="310" height="8" as="geometry" />
        </mxCell>
        <mxCell id="5-mV9dHDalzk_5O0M6KC-43" value="&lt;span&gt;- &lt;/span&gt;&lt;span&gt;UserDatabase()&amp;nbsp;&lt;/span&gt;&lt;span&gt;&lt;br&gt;&lt;/span&gt;&lt;span&gt;+ &lt;/span&gt;&lt;span&gt;getUniqueCounter(): &lt;/span&gt;&lt;span&gt;int&amp;nbsp;&lt;/span&gt;&lt;span&gt;&lt;br&gt;&lt;/span&gt;&lt;span&gt;+ &lt;/span&gt;&lt;span&gt;getInstance(): &lt;/span&gt;&lt;span&gt;UserDatabase&amp;nbsp;&lt;/span&gt;&lt;span&gt;&lt;br&gt;&lt;/span&gt;&lt;span&gt;+ &lt;/span&gt;&lt;span&gt;getUserIds(): &lt;/span&gt;&lt;span&gt;ArrayList&amp;lt;String&amp;gt;&amp;nbsp;&lt;/span&gt;&lt;span&gt;&lt;br&gt;&lt;/span&gt;&lt;span&gt;+ &lt;/span&gt;&lt;span&gt;getUsers(): &lt;/span&gt;&lt;span&gt;ArrayList&amp;lt;User&amp;gt;&amp;nbsp;&lt;/span&gt;&lt;span&gt;&lt;br&gt;&lt;/span&gt;&lt;span&gt;+ &lt;/span&gt;&lt;span&gt;addUser(user: &lt;/span&gt;&lt;span&gt;User): &lt;/span&gt;&lt;span&gt;boolean&amp;nbsp;&lt;/span&gt;&lt;span&gt;&lt;br&gt;&lt;/span&gt;&lt;span&gt;+ &lt;/span&gt;&lt;span&gt;getUser(userId: &lt;/span&gt;&lt;span&gt;String): &lt;/span&gt;&lt;span&gt;User&amp;nbsp;&lt;/span&gt;&lt;span&gt;&lt;br&gt;&lt;/span&gt;&lt;span&gt;+ &lt;/span&gt;&lt;span&gt;userLogin(userId: &lt;/span&gt;&lt;span&gt;String, &lt;/span&gt;&lt;span&gt;password: &lt;/span&gt;&lt;span&gt;String): &lt;/span&gt;&lt;span&gt;boolean&amp;nbsp;&lt;/span&gt;&lt;span&gt;&lt;br&gt;&lt;/span&gt;&lt;span&gt;+ &lt;/span&gt;&lt;span&gt;saveUsersToFile(filePath: &lt;/span&gt;&lt;span&gt;String): &lt;/span&gt;&lt;span&gt;void&amp;nbsp;&lt;/span&gt;&lt;span&gt;&lt;br&gt;&lt;/span&gt;&lt;span&gt;+ &lt;/span&gt;&lt;span&gt;loadUsersFromFile(filePath: &lt;/span&gt;&lt;span&gt;String): &lt;/span&gt;&lt;span&gt;void&lt;/span&gt;&lt;div&gt;&lt;span&gt;+ &lt;/span&gt;&lt;span&gt;getUserFromId(userId: &lt;/span&gt;&lt;span&gt;String): &lt;/span&gt;&lt;span&gt;User&amp;nbsp;&lt;/span&gt;&lt;span&gt;&lt;/span&gt;&lt;/div&gt;" style="text;strokeColor=none;fillColor=none;align=left;verticalAlign=top;spacingLeft=4;spacingRight=4;overflow=hidden;rotatable=0;points=[[0,0.5],[1,0.5]];portConstraint=eastwest;whiteSpace=wrap;html=1;" parent="5-mV9dHDalzk_5O0M6KC-40" vertex="1">
          <mxGeometry y="88" width="310" height="172" as="geometry" />
        </mxCell>
        <mxCell id="5-mV9dHDalzk_5O0M6KC-44" value="UserSignupSingleton" style="swimlane;fontStyle=1;align=center;verticalAlign=top;childLayout=stackLayout;horizontal=1;startSize=26;horizontalStack=0;resizeParent=1;resizeParentMax=0;resizeLast=0;collapsible=1;marginBottom=0;whiteSpace=wrap;html=1;" parent="WIyWlLk6GJQsqaUBKTNV-1" vertex="1">
          <mxGeometry x="675" y="140" width="530" height="160" as="geometry" />
        </mxCell>
        <mxCell id="5-mV9dHDalzk_5O0M6KC-45" value="&lt;span&gt;- &lt;/span&gt;&lt;span&gt;userInstance: &lt;/span&gt;&lt;span&gt;UserSignupSingleton &lt;/span&gt;&lt;span&gt;- &lt;/span&gt;&lt;span&gt;user: &lt;/span&gt;&lt;span&gt;User&amp;nbsp;&amp;nbsp;&lt;/span&gt;" style="text;strokeColor=none;fillColor=none;align=left;verticalAlign=top;spacingLeft=4;spacingRight=4;overflow=hidden;rotatable=0;points=[[0,0.5],[1,0.5]];portConstraint=eastwest;whiteSpace=wrap;html=1;" parent="5-mV9dHDalzk_5O0M6KC-44" vertex="1">
          <mxGeometry y="26" width="530" height="44" as="geometry" />
        </mxCell>
        <mxCell id="5-mV9dHDalzk_5O0M6KC-46" value="" style="line;strokeWidth=1;fillColor=none;align=left;verticalAlign=middle;spacingTop=-1;spacingLeft=3;spacingRight=3;rotatable=0;labelPosition=right;points=[];portConstraint=eastwest;strokeColor=inherit;" parent="5-mV9dHDalzk_5O0M6KC-44" vertex="1">
          <mxGeometry y="70" width="530" height="8" as="geometry" />
        </mxCell>
        <mxCell id="5-mV9dHDalzk_5O0M6KC-47" value="&lt;span&gt;- &lt;/span&gt;&lt;span&gt;UserSignupSingleton()&lt;/span&gt;&lt;span&gt;&amp;nbsp;&lt;/span&gt;&lt;div&gt;&lt;span&gt;+ &lt;/span&gt;&lt;span&gt;getUser(): &lt;/span&gt;&lt;span&gt;User&lt;/span&gt;&lt;div&gt;&lt;span&gt;+ &lt;/span&gt;&lt;span&gt;setUser(user: &lt;/span&gt;&lt;span&gt;User): &lt;/span&gt;&lt;span&gt;void&lt;/span&gt;&lt;span&gt;&amp;nbsp;&lt;/span&gt;&lt;div&gt;&lt;span&gt;+ &lt;/span&gt;&lt;span&gt;getInstance(): &lt;/span&gt;&lt;span&gt;UserSignupSingleton&lt;/span&gt;&lt;div&gt;&lt;span&gt;+ &lt;/span&gt;&lt;span&gt;userSignup(email: &lt;/span&gt;&lt;span&gt;String, &lt;/span&gt;&lt;span&gt;username: &lt;/span&gt;&lt;span&gt;String, &lt;/span&gt;&lt;span&gt;password: &lt;/span&gt;&lt;span&gt;String, &lt;/span&gt;&lt;span&gt;dateOfBirth: &lt;/span&gt;&lt;span&gt;LocalDate): &lt;/span&gt;&lt;span&gt;boolean &lt;/span&gt;&lt;span&gt;&amp;nbsp;&lt;/span&gt;&lt;/div&gt;&lt;/div&gt;&lt;/div&gt;&lt;/div&gt;" style="text;strokeColor=none;fillColor=none;align=left;verticalAlign=top;spacingLeft=4;spacingRight=4;overflow=hidden;rotatable=0;points=[[0,0.5],[1,0.5]];portConstraint=eastwest;whiteSpace=wrap;html=1;" parent="5-mV9dHDalzk_5O0M6KC-44" vertex="1">
          <mxGeometry y="78" width="530" height="82" as="geometry" />
        </mxCell>
        <mxCell id="5-mV9dHDalzk_5O0M6KC-48" value="ValidationUtil" style="swimlane;fontStyle=1;align=center;verticalAlign=top;childLayout=stackLayout;horizontal=1;startSize=26;horizontalStack=0;resizeParent=1;resizeParentMax=0;resizeLast=0;collapsible=1;marginBottom=0;whiteSpace=wrap;html=1;" parent="WIyWlLk6GJQsqaUBKTNV-1" vertex="1">
          <mxGeometry x="660" y="40" width="560" height="66" as="geometry" />
        </mxCell>
        <mxCell id="5-mV9dHDalzk_5O0M6KC-51" value="&lt;span&gt;+ &lt;/span&gt;&lt;span&gt;validateUserInput(email: &lt;/span&gt;&lt;span&gt;String, &lt;/span&gt;&lt;span&gt;username: &lt;/span&gt;&lt;span&gt;String, &lt;/span&gt;&lt;span&gt;password: &lt;/span&gt;&lt;span&gt;String, &lt;/span&gt;&lt;span&gt;dateOfBirth: &lt;/span&gt;&lt;span&gt;LocalDate): &lt;/span&gt;&lt;span&gt;boolean&lt;/span&gt;&lt;span&gt;&lt;br&gt;&lt;/span&gt;&lt;span&gt;+ &lt;/span&gt;&lt;span&gt;validateUserEmail(email: &lt;/span&gt;&lt;span&gt;String): &lt;/span&gt;&lt;span&gt;boolean&amp;nbsp;&lt;/span&gt;&lt;span&gt;&lt;/span&gt;" style="text;strokeColor=none;fillColor=none;align=left;verticalAlign=top;spacingLeft=4;spacingRight=4;overflow=hidden;rotatable=0;points=[[0,0.5],[1,0.5]];portConstraint=eastwest;whiteSpace=wrap;html=1;" parent="5-mV9dHDalzk_5O0M6KC-48" vertex="1">
          <mxGeometry y="26" width="560" height="40" as="geometry" />
        </mxCell>
        <mxCell id="5-mV9dHDalzk_5O0M6KC-53" value="ContentDataBase             " style="swimlane;fontStyle=1;align=center;verticalAlign=top;childLayout=stackLayout;horizontal=1;startSize=26;horizontalStack=0;resizeParent=1;resizeParentMax=0;resizeLast=0;collapsible=1;marginBottom=0;whiteSpace=wrap;html=1;" parent="WIyWlLk6GJQsqaUBKTNV-1" vertex="1">
          <mxGeometry x="1890" y="60" width="280" height="280" as="geometry" />
        </mxCell>
        <mxCell id="5-mV9dHDalzk_5O0M6KC-54" value="&lt;span&gt; &lt;/span&gt;&lt;span&gt;- &lt;/span&gt;&lt;span&gt;posts: &lt;/span&gt;&lt;span&gt;ArrayList&amp;lt;Post&amp;gt;&amp;nbsp;&lt;/span&gt;&lt;span&gt;&lt;br&gt;&lt;/span&gt;&lt;span&gt;- &lt;/span&gt;&lt;span&gt;stories: &lt;/span&gt;&lt;span&gt;ArrayList&amp;lt;Story&amp;gt;&amp;nbsp;&lt;/span&gt;&lt;span&gt;&lt;br&gt;&lt;/span&gt;&lt;span&gt;- &lt;/span&gt;&lt;span&gt;dataBase: &lt;/span&gt;&lt;span&gt;ContentDataBase&amp;nbsp;&lt;/span&gt;&lt;span&gt;&lt;br&gt;&lt;/span&gt;&lt;span&gt;- &lt;/span&gt;&lt;span&gt;id: &lt;/span&gt;&lt;span&gt;int&amp;nbsp; &amp;nbsp;&amp;nbsp;&lt;/span&gt;" style="text;strokeColor=none;fillColor=none;align=left;verticalAlign=top;spacingLeft=4;spacingRight=4;overflow=hidden;rotatable=0;points=[[0,0.5],[1,0.5]];portConstraint=eastwest;whiteSpace=wrap;html=1;" parent="5-mV9dHDalzk_5O0M6KC-53" vertex="1">
          <mxGeometry y="26" width="280" height="64" as="geometry" />
        </mxCell>
        <mxCell id="5-mV9dHDalzk_5O0M6KC-55" value="" style="line;strokeWidth=1;fillColor=none;align=left;verticalAlign=middle;spacingTop=-1;spacingLeft=3;spacingRight=3;rotatable=0;labelPosition=right;points=[];portConstraint=eastwest;strokeColor=inherit;" parent="5-mV9dHDalzk_5O0M6KC-53" vertex="1">
          <mxGeometry y="90" width="280" height="10" as="geometry" />
        </mxCell>
        <mxCell id="5-mV9dHDalzk_5O0M6KC-56" value="&lt;span&gt; &lt;/span&gt;&lt;span&gt;+ &lt;/span&gt;&lt;span&gt;getInstance(): &lt;/span&gt;&lt;span&gt;ContentDataBase&lt;/span&gt;&lt;span&gt;&lt;br&gt;&lt;/span&gt;&lt;span&gt;+ &lt;/span&gt;&lt;span&gt;addContent(cont: &lt;/span&gt;&lt;span&gt;Post): &lt;/span&gt;&lt;span&gt;void&amp;nbsp;&lt;/span&gt;&lt;span&gt;&lt;br&gt;&lt;/span&gt;&lt;span&gt;+ &lt;/span&gt;&lt;span&gt;addContent(cont: &lt;/span&gt;&lt;span&gt;Story): &lt;/span&gt;&lt;span&gt;void&amp;nbsp;&lt;/span&gt;&lt;span&gt;&lt;br&gt;&lt;/span&gt;&lt;span&gt;- &lt;/span&gt;&lt;span&gt;removeStory(): &lt;/span&gt;&lt;span&gt;void&amp;nbsp;&lt;/span&gt;&lt;span&gt;&lt;br&gt;&lt;/span&gt;&lt;span&gt;# &lt;/span&gt;&lt;span&gt;getPosts(): &lt;/span&gt;&lt;span&gt;ArrayList&amp;lt;Post&amp;gt;&amp;nbsp;&lt;/span&gt;&lt;span&gt;&lt;br&gt;&lt;/span&gt;&lt;span&gt;# &lt;/span&gt;&lt;span&gt;getStories(): &lt;/span&gt;&lt;span&gt;ArrayList&amp;lt;Story&amp;gt;&amp;nbsp;&lt;/span&gt;&lt;span&gt;&lt;br&gt;&lt;/span&gt;&lt;span&gt;+ &lt;/span&gt;&lt;span&gt;getFriendsPosts(user: &lt;/span&gt;&lt;span&gt;User): &lt;/span&gt;&lt;span&gt;ArrayList&amp;lt;Post&amp;gt;&amp;nbsp;&lt;/span&gt;&lt;span&gt;&lt;br&gt;&lt;/span&gt;&lt;span&gt;+ &lt;/span&gt;&lt;span&gt;getFriendsStories(user: &lt;/span&gt;&lt;span&gt;User): &lt;/span&gt;&lt;span&gt;ArrayList&amp;lt;Story&amp;gt;&amp;nbsp;&lt;/span&gt;&lt;span&gt;&lt;br&gt;&lt;/span&gt;&lt;span&gt;+ &lt;/span&gt;&lt;span&gt;getUniqueId(): &lt;/span&gt;&lt;span&gt;int&amp;nbsp;&lt;/span&gt;&lt;span&gt;&lt;br&gt;&lt;/span&gt;&lt;span&gt;- &lt;/span&gt;&lt;span&gt;load(): &lt;/span&gt;&lt;span&gt;void&amp;nbsp;&lt;/span&gt;&lt;span&gt;&lt;br&gt;&lt;/span&gt;&lt;span&gt;+ &lt;/span&gt;&lt;span&gt;save(): &lt;/span&gt;&lt;span&gt;void&amp;nbsp;&lt;/span&gt;&lt;span&gt;&lt;br&gt;&lt;/span&gt;&lt;span&gt;+ &lt;/span&gt;&lt;span&gt;close(): &lt;/span&gt;&lt;span&gt;void&amp;nbsp; &amp;nbsp;&lt;/span&gt;" style="text;strokeColor=none;fillColor=none;align=left;verticalAlign=top;spacingLeft=4;spacingRight=4;overflow=hidden;rotatable=0;points=[[0,0.5],[1,0.5]];portConstraint=eastwest;whiteSpace=wrap;html=1;" parent="5-mV9dHDalzk_5O0M6KC-53" vertex="1">
          <mxGeometry y="100" width="280" height="180" as="geometry" />
        </mxCell>
        <mxCell id="5-mV9dHDalzk_5O0M6KC-57" value="story" style="swimlane;fontStyle=1;align=center;verticalAlign=top;childLayout=stackLayout;horizontal=1;startSize=26;horizontalStack=0;resizeParent=1;resizeParentMax=0;resizeLast=0;collapsible=1;marginBottom=0;whiteSpace=wrap;html=1;" parent="WIyWlLk6GJQsqaUBKTNV-1" vertex="1">
          <mxGeometry x="1660" y="442" width="260" height="80" as="geometry" />
        </mxCell>
        <mxCell id="5-mV9dHDalzk_5O0M6KC-60" value="&lt;span&gt;+ &lt;/span&gt;&lt;span&gt;Story(authorId: &lt;/span&gt;&lt;span&gt;User)&lt;/span&gt;&lt;span&gt;&lt;br&gt;&lt;/span&gt;&lt;span&gt;+ &lt;/span&gt;&lt;span&gt;uplode(): &lt;/span&gt;&lt;span&gt;void&lt;/span&gt;&lt;span&gt;&lt;br&gt;&lt;/span&gt;&lt;span&gt;+ &lt;/span&gt;&lt;span&gt;fromJSON(jsonObject: &lt;/span&gt;&lt;span&gt;JSONObject): &lt;/span&gt;&lt;span&gt;Story&amp;nbsp;&lt;/span&gt;" style="text;strokeColor=none;fillColor=none;align=left;verticalAlign=top;spacingLeft=4;spacingRight=4;overflow=hidden;rotatable=0;points=[[0,0.5],[1,0.5]];portConstraint=eastwest;whiteSpace=wrap;html=1;" parent="5-mV9dHDalzk_5O0M6KC-57" vertex="1">
          <mxGeometry y="26" width="260" height="54" as="geometry" />
        </mxCell>
        <mxCell id="5-mV9dHDalzk_5O0M6KC-61" value="Post" style="swimlane;fontStyle=1;align=center;verticalAlign=top;childLayout=stackLayout;horizontal=1;startSize=26;horizontalStack=0;resizeParent=1;resizeParentMax=0;resizeLast=0;collapsible=1;marginBottom=0;whiteSpace=wrap;html=1;" parent="WIyWlLk6GJQsqaUBKTNV-1" vertex="1">
          <mxGeometry x="1380" y="442" width="250" height="80" as="geometry" />
        </mxCell>
        <mxCell id="5-mV9dHDalzk_5O0M6KC-64" value="&lt;span&gt;+ &lt;/span&gt;&lt;span&gt;Post(authorId: &lt;/span&gt;&lt;span&gt;User)&lt;/span&gt;&lt;span&gt;&lt;br&gt;&lt;/span&gt;&lt;span&gt;+ &lt;/span&gt;&lt;span&gt;uplode(): &lt;/span&gt;&lt;span&gt;void&lt;/span&gt;&lt;span&gt;&lt;br&gt;&lt;/span&gt;&lt;span&gt;+ &lt;/span&gt;&lt;span&gt;fromJSON(jsonObject: &lt;/span&gt;&lt;span&gt;JSONObject): &lt;/span&gt;&lt;span&gt;Post&amp;nbsp;&lt;/span&gt;" style="text;strokeColor=none;fillColor=none;align=left;verticalAlign=top;spacingLeft=4;spacingRight=4;overflow=hidden;rotatable=0;points=[[0,0.5],[1,0.5]];portConstraint=eastwest;whiteSpace=wrap;html=1;" parent="5-mV9dHDalzk_5O0M6KC-61" vertex="1">
          <mxGeometry y="26" width="250" height="54" as="geometry" />
        </mxCell>
        <mxCell id="5-mV9dHDalzk_5O0M6KC-65" value="AContent" style="swimlane;fontStyle=1;align=center;verticalAlign=top;childLayout=stackLayout;horizontal=1;startSize=26;horizontalStack=0;resizeParent=1;resizeParentMax=0;resizeLast=0;collapsible=1;marginBottom=0;whiteSpace=wrap;html=1;" parent="WIyWlLk6GJQsqaUBKTNV-1" vertex="1">
          <mxGeometry x="1460" y="40" width="320" height="340" as="geometry" />
        </mxCell>
        <mxCell id="5-mV9dHDalzk_5O0M6KC-66" value="&lt;span&gt;- &lt;/span&gt;&lt;span&gt;contentId: &lt;/span&gt;&lt;span&gt;int&amp;nbsp;&lt;/span&gt;&lt;span&gt;&lt;br&gt;&lt;/span&gt;&lt;span&gt;- &lt;/span&gt;&lt;span&gt;author: &lt;/span&gt;&lt;span&gt;User&lt;/span&gt;&lt;span&gt;&lt;br&gt;&lt;/span&gt;&lt;span&gt;- &lt;/span&gt;&lt;span&gt;text: &lt;/span&gt;&lt;span&gt;String&lt;/span&gt;&lt;span&gt;&lt;br&gt;&lt;/span&gt;&lt;span&gt;- &lt;/span&gt;&lt;span&gt;imagePath: &lt;/span&gt;&lt;span&gt;String&lt;/span&gt;&lt;span&gt;&lt;br&gt;&lt;/span&gt;&lt;span&gt;- &lt;/span&gt;&lt;span&gt;timeOfUpload: &lt;/span&gt;&lt;span&gt;LocalDateTime&lt;/span&gt;&lt;span&gt;&lt;br&gt;&lt;/span&gt;&lt;span&gt;- &lt;/span&gt;&lt;span&gt;timeStampFormat: &lt;/span&gt;&lt;span&gt;DateTimeFormatter&amp;nbsp;&lt;/span&gt;" style="text;strokeColor=none;fillColor=none;align=left;verticalAlign=top;spacingLeft=4;spacingRight=4;overflow=hidden;rotatable=0;points=[[0,0.5],[1,0.5]];portConstraint=eastwest;whiteSpace=wrap;html=1;" parent="5-mV9dHDalzk_5O0M6KC-65" vertex="1">
          <mxGeometry y="26" width="320" height="94" as="geometry" />
        </mxCell>
        <mxCell id="5-mV9dHDalzk_5O0M6KC-67" value="" style="line;strokeWidth=1;fillColor=none;align=left;verticalAlign=middle;spacingTop=-1;spacingLeft=3;spacingRight=3;rotatable=0;labelPosition=right;points=[];portConstraint=eastwest;strokeColor=inherit;" parent="5-mV9dHDalzk_5O0M6KC-65" vertex="1">
          <mxGeometry y="120" width="320" height="8" as="geometry" />
        </mxCell>
        <mxCell id="5-mV9dHDalzk_5O0M6KC-68" value="&lt;span&gt;+ &lt;/span&gt;&lt;span&gt;getTimestamp(): &lt;/span&gt;&lt;span&gt;String&amp;nbsp;&lt;/span&gt;&lt;span&gt;&lt;br&gt;&lt;/span&gt;&lt;span&gt;+ &lt;/span&gt;&lt;span&gt;getText(): &lt;/span&gt;&lt;span&gt;String&amp;nbsp;&lt;/span&gt;&lt;span&gt;&lt;br&gt;&lt;/span&gt;&lt;span&gt;+ &lt;/span&gt;&lt;span&gt;getImagePath(): &lt;/span&gt;&lt;span&gt;String&amp;nbsp;&lt;/span&gt;&lt;span&gt;&lt;br&gt;&lt;/span&gt;&lt;span&gt;+ &lt;/span&gt;&lt;span&gt;getContentId(): &lt;/span&gt;&lt;span&gt;int&amp;nbsp;&lt;/span&gt;&lt;span&gt;&lt;br&gt;&lt;/span&gt;&lt;span&gt;+ &lt;/span&gt;&lt;span&gt;getAuthor(): &lt;/span&gt;&lt;span&gt;User&amp;nbsp;&lt;/span&gt;&lt;span&gt;&lt;br&gt;&lt;/span&gt;&lt;span&gt;+ &lt;/span&gt;&lt;span&gt;getTimeOfUpload(): &lt;/span&gt;&lt;span&gt;LocalDateTime&amp;nbsp;&lt;/span&gt;&lt;span&gt;&lt;br&gt;&lt;/span&gt;&lt;span&gt;+ &lt;/span&gt;&lt;span&gt;setText(text: &lt;/span&gt;&lt;span&gt;String): &lt;/span&gt;&lt;span&gt;void&amp;nbsp;&lt;/span&gt;&lt;span&gt;&lt;br&gt;&lt;/span&gt;&lt;span&gt;+ &lt;/span&gt;&lt;span&gt;setImagePath(imagePath: &lt;/span&gt;&lt;span&gt;String): &lt;/span&gt;&lt;span&gt;void&amp;nbsp;&lt;/span&gt;&lt;span&gt;&lt;br&gt;&lt;/span&gt;&lt;span&gt;+ &lt;/span&gt;&lt;span&gt;setTimeOfUpload(timeOfUpload: &lt;/span&gt;&lt;span&gt;LocalDateTime): &lt;/span&gt;&lt;span&gt;void&amp;nbsp;&lt;/span&gt;&lt;span&gt;&lt;br&gt;&lt;/span&gt;&lt;span&gt;+ &lt;/span&gt;&lt;span&gt;setTimeOfUpload(): &lt;/span&gt;&lt;span&gt;void&amp;nbsp;&lt;/span&gt;&lt;span&gt;&lt;br&gt;&lt;/span&gt;&lt;span&gt;+ &lt;/span&gt;&lt;span&gt;getTimeStampFormat(): &lt;/span&gt;&lt;span&gt;DateTimeFormatter&amp;nbsp;&lt;/span&gt;&lt;span&gt;&lt;br&gt;&lt;/span&gt;&lt;span&gt;+ &lt;/span&gt;&lt;span&gt;AContent(author: &lt;/span&gt;&lt;span&gt;User)&amp;nbsp;&lt;/span&gt;&lt;span&gt;&lt;br&gt;&lt;/span&gt;&lt;span&gt;+ &lt;/span&gt;&lt;span&gt;toJSON(): &lt;/span&gt;&lt;span&gt;JSONObject&amp;nbsp;&lt;/span&gt;&lt;span&gt;&lt;br&gt;&lt;/span&gt;&lt;span&gt;+ &lt;/span&gt;&lt;span&gt;abstract &lt;/span&gt;&lt;span&gt;uplode(): &lt;/span&gt;&lt;span&gt;void&lt;/span&gt;" style="text;strokeColor=none;fillColor=none;align=left;verticalAlign=top;spacingLeft=4;spacingRight=4;overflow=hidden;rotatable=0;points=[[0,0.5],[1,0.5]];portConstraint=eastwest;whiteSpace=wrap;html=1;" parent="5-mV9dHDalzk_5O0M6KC-65" vertex="1">
          <mxGeometry y="128" width="320" height="212" as="geometry" />
        </mxCell>
        <mxCell id="5-mV9dHDalzk_5O0M6KC-71" value="FriendsGui " style="swimlane;fontStyle=1;align=center;verticalAlign=top;childLayout=stackLayout;horizontal=1;startSize=26;horizontalStack=0;resizeParent=1;resizeParentMax=0;resizeLast=0;collapsible=1;marginBottom=0;whiteSpace=wrap;html=1;" parent="WIyWlLk6GJQsqaUBKTNV-1" vertex="1">
          <mxGeometry x="140" y="1540" width="390" height="530" as="geometry" />
        </mxCell>
        <mxCell id="5-mV9dHDalzk_5O0M6KC-72" value="&lt;span&gt;- &lt;/span&gt;&lt;span&gt;currentUser: &lt;/span&gt;&lt;span&gt;User&lt;/span&gt;&lt;span&gt;&lt;br&gt;&lt;/span&gt;&lt;span&gt;- &lt;/span&gt;&lt;span&gt;friendRequestsModel: &lt;/span&gt;&lt;span&gt;DefaultListModel&amp;lt;String&amp;gt;&lt;/span&gt;&lt;span&gt;&lt;br&gt;&lt;/span&gt;&lt;span&gt;- &lt;/span&gt;&lt;span&gt;friendListModel: &lt;/span&gt;&lt;span&gt;DefaultListModel&amp;lt;String&amp;gt;&lt;/span&gt;&lt;span&gt;&lt;br&gt;&lt;/span&gt;&lt;span&gt;- &lt;/span&gt;&lt;span&gt;friendSuggestionsModel: &lt;/span&gt;&lt;span&gt;DefaultListModel&amp;lt;String&amp;gt;&lt;/span&gt;&lt;span&gt;&lt;br&gt;&lt;/span&gt;&lt;span&gt;- &lt;/span&gt;&lt;span&gt;changeFriendStatusModel: &lt;/span&gt;&lt;span&gt;DefaultListModel&amp;lt;String&amp;gt;&lt;/span&gt;" style="text;strokeColor=none;fillColor=none;align=left;verticalAlign=top;spacingLeft=4;spacingRight=4;overflow=hidden;rotatable=0;points=[[0,0.5],[1,0.5]];portConstraint=eastwest;whiteSpace=wrap;html=1;" parent="5-mV9dHDalzk_5O0M6KC-71" vertex="1">
          <mxGeometry y="26" width="390" height="84" as="geometry" />
        </mxCell>
        <mxCell id="5-mV9dHDalzk_5O0M6KC-73" value="" style="line;strokeWidth=1;fillColor=none;align=left;verticalAlign=middle;spacingTop=-1;spacingLeft=3;spacingRight=3;rotatable=0;labelPosition=right;points=[];portConstraint=eastwest;strokeColor=inherit;" parent="5-mV9dHDalzk_5O0M6KC-71" vertex="1">
          <mxGeometry y="110" width="390" height="8" as="geometry" />
        </mxCell>
        <mxCell id="5-mV9dHDalzk_5O0M6KC-74" value="&lt;span&gt; &lt;/span&gt;&lt;span&gt;+ &lt;/span&gt;&lt;span&gt;FriendsGui()&amp;nbsp;&lt;/span&gt;&lt;span&gt;&lt;br&gt;&lt;/span&gt;&lt;span&gt;+ &lt;/span&gt;&lt;span&gt;initCustomComponents(): &lt;/span&gt;&lt;span&gt;void&amp;nbsp;&lt;/span&gt;&lt;span&gt;&lt;br&gt;&lt;/span&gt;&lt;span&gt;- &lt;/span&gt;&lt;span&gt;acceptActionPerformed(evt: &lt;/span&gt;&lt;span&gt;java.awt.event.ActionEvent): &lt;/span&gt;&lt;span&gt;void&amp;nbsp;&lt;/span&gt;&lt;span&gt;&lt;br&gt;&lt;/span&gt;&lt;span&gt;- &lt;/span&gt;&lt;span&gt;declineActionPerformed(evt: &lt;/span&gt;&lt;span&gt;java.awt.event.ActionEvent): &lt;/span&gt;&lt;span&gt;void&amp;nbsp;&lt;/span&gt;&lt;span&gt;&lt;br&gt;&lt;/span&gt;&lt;span&gt;- &lt;/span&gt;&lt;span&gt;addFriendActionPerformed(evt: &lt;/span&gt;&lt;span&gt;java.awt.event.ActionEvent): &lt;/span&gt;&lt;span&gt;void&amp;nbsp;&lt;/span&gt;&lt;span&gt;&lt;br&gt;&lt;/span&gt;&lt;span&gt;- &lt;/span&gt;&lt;span&gt;blockActionPerformed(evt: &lt;/span&gt;&lt;span&gt;java.awt.event.ActionEvent): &lt;/span&gt;&lt;span&gt;void&amp;nbsp;&lt;/span&gt;&lt;span&gt;&lt;br&gt;&lt;/span&gt;&lt;span&gt;- &lt;/span&gt;&lt;span&gt;removeActionPerformed(evt: &lt;/span&gt;&lt;span&gt;java.awt.event.ActionEvent): &lt;/span&gt;&lt;span&gt;void&amp;nbsp;&lt;/span&gt;&lt;div&gt;&lt;span&gt;&lt;br&gt;&lt;/span&gt;&lt;span&gt;&amp;nbsp; &amp;lt;&amp;lt;Swing &lt;/span&gt;&lt;span&gt;Components&amp;gt;&amp;gt;&amp;nbsp;&lt;/span&gt;&lt;span&gt;&lt;br&gt;&lt;/span&gt;&lt;span&gt;- &lt;/span&gt;&lt;span&gt;accept: &lt;/span&gt;&lt;span&gt;JButton&lt;/span&gt;&lt;span&gt;&lt;br&gt;&lt;/span&gt;&lt;span&gt;- &lt;/span&gt;&lt;span&gt;decline: &lt;/span&gt;&lt;span&gt;JButton&lt;/span&gt;&lt;span&gt;&lt;br&gt;&lt;/span&gt;&lt;span&gt;- &lt;/span&gt;&lt;span&gt;addFriend: &lt;/span&gt;&lt;span&gt;JButton&lt;/span&gt;&lt;span&gt;&lt;br&gt;&lt;/span&gt;&lt;span&gt;- &lt;/span&gt;&lt;span&gt;block: &lt;/span&gt;&lt;span&gt;JButton&lt;/span&gt;&lt;span&gt;&lt;br&gt;&lt;/span&gt;&lt;span&gt;- &lt;/span&gt;&lt;span&gt;remove: &lt;/span&gt;&lt;span&gt;JButton&lt;/span&gt;&lt;span&gt;&lt;br&gt;&lt;/span&gt;&lt;span&gt;- &lt;/span&gt;&lt;span&gt;friendRequests: &lt;/span&gt;&lt;span&gt;JList&amp;lt;String&amp;gt;&lt;/span&gt;&lt;span&gt;&lt;br&gt;&lt;/span&gt;&lt;span&gt;- &lt;/span&gt;&lt;span&gt;friendList: &lt;/span&gt;&lt;span&gt;JList&amp;lt;String&amp;gt;&lt;/span&gt;&lt;span&gt;&lt;br&gt;&lt;/span&gt;&lt;span&gt;- &lt;/span&gt;&lt;span&gt;friendSuggestions: &lt;/span&gt;&lt;span&gt;JList&amp;lt;String&amp;gt;&lt;/span&gt;&lt;span&gt;&lt;br&gt;&lt;/span&gt;&lt;span&gt;- &lt;/span&gt;&lt;span&gt;changeFriendStatus: &lt;/span&gt;&lt;span&gt;JList&amp;lt;String&amp;gt;&lt;/span&gt;&lt;span&gt;&lt;br&gt;&lt;/span&gt;&lt;span&gt;- &lt;/span&gt;&lt;span&gt;jTabbedPane2: &lt;/span&gt;&lt;span&gt;JTabbedPane&lt;/span&gt;&lt;span&gt;&lt;br&gt;&lt;/span&gt;&lt;span&gt;- &lt;/span&gt;&lt;span&gt;jPanel1: &lt;/span&gt;&lt;span&gt;JPanel&lt;/span&gt;&lt;span&gt;&lt;br&gt;&lt;/span&gt;&lt;span&gt;- &lt;/span&gt;&lt;span&gt;jPanel2: &lt;/span&gt;&lt;span&gt;JPanel&lt;/span&gt;&lt;span&gt;&lt;br&gt;&lt;/span&gt;&lt;span&gt;- &lt;/span&gt;&lt;span&gt;jPanel3: &lt;/span&gt;&lt;span&gt;JPanel&lt;/span&gt;&lt;span&gt;&lt;br&gt;&lt;/span&gt;&lt;span&gt;- &lt;/span&gt;&lt;span&gt;jPanel4: &lt;/span&gt;&lt;span&gt;JPanel&amp;nbsp;&lt;/span&gt;&lt;span&gt;&lt;br&gt;&lt;/span&gt;&lt;span&gt;- &lt;/span&gt;&lt;span&gt;jScrollPane1: &lt;/span&gt;&lt;span&gt;JScrollPane&lt;/span&gt;&lt;span&gt;&lt;br&gt;&lt;/span&gt;&lt;span&gt;- &lt;/span&gt;&lt;span&gt;jScrollPane2: &lt;/span&gt;&lt;span&gt;JScrollPane&amp;nbsp;&lt;/span&gt;&lt;span&gt;&lt;br&gt;&lt;/span&gt;&lt;span&gt;- &lt;/span&gt;&lt;span&gt;jScrollPane3: &lt;/span&gt;&lt;span&gt;JScrollPane&amp;nbsp;&lt;/span&gt;&lt;span&gt;&lt;br&gt;&lt;/span&gt;&lt;span&gt;- &lt;/span&gt;&lt;span&gt;jScrollPane4: &lt;/span&gt;&lt;span&gt;JScrollPane&amp;nbsp;&lt;/span&gt;&lt;span&gt;&lt;br&gt;&lt;/span&gt;&lt;span&gt;- &lt;/span&gt;&lt;span&gt;jScrollPane5: &lt;/span&gt;&lt;span&gt;JScrollPane&amp;nbsp;&amp;nbsp;&lt;/span&gt;&lt;/div&gt;" style="text;strokeColor=none;fillColor=none;align=left;verticalAlign=top;spacingLeft=4;spacingRight=4;overflow=hidden;rotatable=0;points=[[0,0.5],[1,0.5]];portConstraint=eastwest;whiteSpace=wrap;html=1;" parent="5-mV9dHDalzk_5O0M6KC-71" vertex="1">
          <mxGeometry y="118" width="390" height="412" as="geometry" />
        </mxCell>
        <mxCell id="5-mV9dHDalzk_5O0M6KC-75" value="ImageResizer" style="swimlane;fontStyle=1;align=center;verticalAlign=top;childLayout=stackLayout;horizontal=1;startSize=26;horizontalStack=0;resizeParent=1;resizeParentMax=0;resizeLast=0;collapsible=1;marginBottom=0;whiteSpace=wrap;html=1;" parent="WIyWlLk6GJQsqaUBKTNV-1" vertex="1">
          <mxGeometry x="600" y="1230" width="370" height="70" as="geometry" />
        </mxCell>
        <mxCell id="5-mV9dHDalzk_5O0M6KC-78" value="&lt;span&gt;- &lt;/span&gt;&lt;span&gt;ImageResizer()&lt;/span&gt;&lt;span&gt;&lt;br&gt;&lt;/span&gt;&lt;span&gt;+ &lt;/span&gt;&lt;span&gt;resizeImage(imagePath: &lt;/span&gt;&lt;span&gt;String, &lt;/span&gt;&lt;span&gt;width: &lt;/span&gt;&lt;span&gt;int, &lt;/span&gt;&lt;span&gt;height: &lt;/span&gt;&lt;span&gt;int): &lt;/span&gt;&lt;span&gt;ImageIcon&amp;nbsp;&lt;/span&gt;" style="text;strokeColor=none;fillColor=none;align=left;verticalAlign=top;spacingLeft=4;spacingRight=4;overflow=hidden;rotatable=0;points=[[0,0.5],[1,0.5]];portConstraint=eastwest;whiteSpace=wrap;html=1;" parent="5-mV9dHDalzk_5O0M6KC-75" vertex="1">
          <mxGeometry y="26" width="370" height="44" as="geometry" />
        </mxCell>
        <mxCell id="5-mV9dHDalzk_5O0M6KC-79" value="CreateContentP&amp;nbsp; &amp;nbsp; &amp;nbsp; &amp;nbsp; &amp;nbsp; &amp;nbsp;&amp;nbsp;" style="swimlane;fontStyle=1;align=center;verticalAlign=top;childLayout=stackLayout;horizontal=1;startSize=26;horizontalStack=0;resizeParent=1;resizeParentMax=0;resizeLast=0;collapsible=1;marginBottom=0;whiteSpace=wrap;html=1;" parent="WIyWlLk6GJQsqaUBKTNV-1" vertex="1">
          <mxGeometry x="160" y="1230" width="350" height="250" as="geometry" />
        </mxCell>
        <mxCell id="5-mV9dHDalzk_5O0M6KC-80" value="&lt;span&gt;- &lt;/span&gt;&lt;span&gt;selectedFile: &lt;/span&gt;&lt;span&gt;File&amp;nbsp;&lt;/span&gt;" style="text;strokeColor=none;fillColor=none;align=left;verticalAlign=top;spacingLeft=4;spacingRight=4;overflow=hidden;rotatable=0;points=[[0,0.5],[1,0.5]];portConstraint=eastwest;whiteSpace=wrap;html=1;" parent="5-mV9dHDalzk_5O0M6KC-79" vertex="1">
          <mxGeometry y="26" width="350" height="26" as="geometry" />
        </mxCell>
        <mxCell id="5-mV9dHDalzk_5O0M6KC-81" value="" style="line;strokeWidth=1;fillColor=none;align=left;verticalAlign=middle;spacingTop=-1;spacingLeft=3;spacingRight=3;rotatable=0;labelPosition=right;points=[];portConstraint=eastwest;strokeColor=inherit;" parent="5-mV9dHDalzk_5O0M6KC-79" vertex="1">
          <mxGeometry y="52" width="350" height="8" as="geometry" />
        </mxCell>
        <mxCell id="5-mV9dHDalzk_5O0M6KC-82" value="&lt;span&gt;+ &lt;/span&gt;&lt;span&gt;CreateContentP()&amp;nbsp;&lt;/span&gt;&lt;span&gt;&lt;br&gt;&lt;/span&gt;&lt;span&gt;+ &lt;/span&gt;&lt;span&gt;initComponents(): &lt;/span&gt;&lt;span&gt;void&amp;nbsp;&lt;/span&gt;&lt;span&gt;&lt;br&gt;&lt;/span&gt;&lt;span&gt;+ &lt;/span&gt;&lt;span&gt;jLabel2MouseClicked(evt: &lt;/span&gt;&lt;span&gt;java.awt.event.MouseEvent): &lt;/span&gt;&lt;span&gt;void&amp;nbsp;&lt;/span&gt;&lt;span&gt;&lt;br&gt;&lt;/span&gt;&lt;span&gt;+ &lt;/span&gt;&lt;span&gt;uploadPostEvent(evt: &lt;/span&gt;&lt;span&gt;java.awt.event.ActionEvent): &lt;/span&gt;&lt;span&gt;void&amp;nbsp;&lt;/span&gt;&lt;span&gt;&lt;br&gt;&lt;/span&gt;&lt;span&gt;+ &lt;/span&gt;&lt;span&gt;uploadStoryEvent(evt: &lt;/span&gt;&lt;span&gt;java.awt.event.ActionEvent): &lt;/span&gt;&lt;span&gt;void&amp;nbsp;&lt;/span&gt;&lt;div&gt;&lt;span&gt;&lt;br&gt;&lt;/span&gt;&lt;span&gt;&amp;nbsp; &amp;lt;&amp;lt;Swing &lt;/span&gt;&lt;span&gt;Components&amp;gt;&amp;gt;&lt;/span&gt;&lt;span&gt;&lt;br&gt;&lt;/span&gt;&lt;span&gt;- &lt;/span&gt;&lt;span&gt;jLabel2: &lt;/span&gt;&lt;span&gt;JLabel&amp;nbsp;&lt;/span&gt;&lt;span&gt;&lt;br&gt;&lt;/span&gt;&lt;span&gt;- &lt;/span&gt;&lt;span&gt;jScrollPane1: &lt;/span&gt;&lt;span&gt;JScrollPane&amp;nbsp;&lt;/span&gt;&lt;span&gt;&lt;br&gt;&lt;/span&gt;&lt;span&gt;- &lt;/span&gt;&lt;span&gt;jTextArea1: &lt;/span&gt;&lt;span&gt;JTextArea&amp;nbsp;&lt;/span&gt;&lt;span&gt;&lt;br&gt;&lt;/span&gt;&lt;span&gt;- &lt;/span&gt;&lt;span&gt;uploadPostButton: &lt;/span&gt;&lt;span&gt;JButton&amp;nbsp;&lt;/span&gt;&lt;span&gt;&lt;br&gt;&lt;/span&gt;&lt;span&gt;- &lt;/span&gt;&lt;span&gt;uploadStoryButton: &lt;/span&gt;&lt;span&gt;JButton&amp;nbsp;&lt;/span&gt;&lt;/div&gt;" style="text;strokeColor=none;fillColor=none;align=left;verticalAlign=top;spacingLeft=4;spacingRight=4;overflow=hidden;rotatable=0;points=[[0,0.5],[1,0.5]];portConstraint=eastwest;whiteSpace=wrap;html=1;" parent="5-mV9dHDalzk_5O0M6KC-79" vertex="1">
          <mxGeometry y="60" width="350" height="190" as="geometry" />
        </mxCell>
        <mxCell id="5-mV9dHDalzk_5O0M6KC-83" value="LoginFrame" style="swimlane;fontStyle=1;align=center;verticalAlign=top;childLayout=stackLayout;horizontal=1;startSize=26;horizontalStack=0;resizeParent=1;resizeParentMax=0;resizeLast=0;collapsible=1;marginBottom=0;whiteSpace=wrap;html=1;" parent="WIyWlLk6GJQsqaUBKTNV-1" vertex="1">
          <mxGeometry x="600" y="1320" width="370" height="200" as="geometry" />
        </mxCell>
        <mxCell id="5-mV9dHDalzk_5O0M6KC-86" value="&lt;span&gt;+ &lt;/span&gt;&lt;span&gt;LoginFrame()&lt;/span&gt;&lt;span&gt;&lt;br&gt;&lt;/span&gt;&lt;span&gt;- &lt;/span&gt;&lt;span&gt;initCustomComponents(): &lt;/span&gt;&lt;span&gt;void&lt;/span&gt;&lt;span&gt;&lt;br&gt;&lt;/span&gt;&lt;span&gt;+ &lt;/span&gt;&lt;span&gt;main(args: &lt;/span&gt;&lt;span&gt;String[]): &lt;/span&gt;&lt;span&gt;void&lt;/span&gt;&lt;span&gt;&lt;br&gt;&lt;/span&gt;&lt;span&gt;- &lt;/span&gt;&lt;span&gt;passwordActionPerformed(evt: &lt;/span&gt;&lt;span&gt;java.awt.event.ActionEvent): &lt;/span&gt;&lt;span&gt;void&lt;/span&gt;&lt;span&gt;&lt;br&gt;&lt;/span&gt;&lt;span&gt;&lt;br&gt;&lt;/span&gt;&lt;span&gt;&amp;nbsp; &amp;lt;&amp;lt;Swing &lt;/span&gt;&lt;span&gt;Components&amp;gt;&amp;gt;&amp;nbsp;&lt;/span&gt;&lt;span&gt;&lt;br&gt;&lt;/span&gt;&lt;span&gt;- &lt;/span&gt;&lt;span&gt;jLabel1: &lt;/span&gt;&lt;span&gt;JLabel&amp;nbsp;&lt;/span&gt;&lt;span&gt;&lt;br&gt;&lt;/span&gt;&lt;span&gt;- &lt;/span&gt;&lt;span&gt;jLabel2: &lt;/span&gt;&lt;span&gt;JLabel&amp;nbsp;&lt;/span&gt;&lt;span&gt;&lt;br&gt;&lt;/span&gt;&lt;span&gt;- &lt;/span&gt;&lt;span&gt;login: &lt;/span&gt;&lt;span&gt;JButton&amp;nbsp;&lt;/span&gt;&lt;span&gt;&lt;br&gt;&lt;/span&gt;&lt;span&gt;- &lt;/span&gt;&lt;span&gt;password: &lt;/span&gt;&lt;span&gt;JTextField&amp;nbsp;&lt;/span&gt;&lt;span&gt;&lt;br&gt;&lt;/span&gt;&lt;span&gt;- &lt;/span&gt;&lt;span&gt;userid: &lt;/span&gt;&lt;span&gt;JTextField&amp;nbsp; &amp;nbsp; &amp;nbsp; &amp;nbsp;&lt;/span&gt;" style="text;strokeColor=none;fillColor=none;align=left;verticalAlign=top;spacingLeft=4;spacingRight=4;overflow=hidden;rotatable=0;points=[[0,0.5],[1,0.5]];portConstraint=eastwest;whiteSpace=wrap;html=1;" parent="5-mV9dHDalzk_5O0M6KC-83" vertex="1">
          <mxGeometry y="26" width="370" height="174" as="geometry" />
        </mxCell>
        <mxCell id="5-mV9dHDalzk_5O0M6KC-87" value="SignupFrame" style="swimlane;fontStyle=1;align=center;verticalAlign=top;childLayout=stackLayout;horizontal=1;startSize=26;horizontalStack=0;resizeParent=1;resizeParentMax=0;resizeLast=0;collapsible=1;marginBottom=0;whiteSpace=wrap;html=1;" parent="WIyWlLk6GJQsqaUBKTNV-1" vertex="1">
          <mxGeometry x="590" y="1560" width="350" height="260" as="geometry" />
        </mxCell>
        <mxCell id="5-mV9dHDalzk_5O0M6KC-90" value="&lt;span&gt;+&amp;nbsp;&lt;/span&gt;&lt;span&gt;SignupFrame()&lt;/span&gt;&lt;span&gt;&lt;br&gt;&lt;/span&gt;&lt;span&gt;- &lt;/span&gt;&lt;span&gt;initCustomComponents(): &lt;/span&gt;&lt;span&gt;void&lt;/span&gt;&lt;span&gt;&lt;br&gt;&lt;/span&gt;&lt;span&gt;- &lt;/span&gt;&lt;span&gt;signupActionPerformed(evt: &lt;/span&gt;&lt;span&gt;java.awt.event.ActionEvent): &lt;/span&gt;&lt;span&gt;void&lt;/span&gt;&lt;span&gt;&lt;br&gt;&lt;/span&gt;&lt;span&gt;+ &lt;/span&gt;&lt;span&gt;main(args: &lt;/span&gt;&lt;span&gt;String[]): &lt;/span&gt;&lt;span&gt;void&amp;nbsp;&lt;/span&gt;&lt;div&gt;&lt;span&gt;&lt;br&gt;&lt;/span&gt;&lt;span&gt;&amp;nbsp; &amp;nbsp;&lt;/span&gt;&lt;span&gt;&amp;lt;&amp;lt;Swing &lt;/span&gt;&lt;span&gt;Components&amp;gt;&amp;gt;&amp;nbsp;&lt;/span&gt;&lt;span&gt;&lt;br&gt;&lt;/span&gt;&lt;span&gt;- &lt;/span&gt;&lt;span&gt;email: &lt;/span&gt;&lt;span&gt;JTextField&amp;nbsp;&lt;/span&gt;&lt;span&gt;&lt;br&gt;&lt;/span&gt;&lt;span&gt;- &lt;/span&gt;&lt;span&gt;jCalendar1: &lt;/span&gt;&lt;span&gt;JCalendar&amp;nbsp;&lt;/span&gt;&lt;span&gt;&lt;br&gt;&lt;/span&gt;&lt;span&gt;- &lt;/span&gt;&lt;span&gt;jLabel1: &lt;/span&gt;&lt;span&gt;JLabel&amp;nbsp;&lt;/span&gt;&lt;span&gt;&lt;br&gt;&lt;/span&gt;&lt;span&gt;- &lt;/span&gt;&lt;span&gt;jLabel2: &lt;/span&gt;&lt;span&gt;JLabel&amp;nbsp;&lt;/span&gt;&lt;span&gt;&lt;br&gt;&lt;/span&gt;&lt;span&gt;- &lt;/span&gt;&lt;span&gt;jLabel3: &lt;/span&gt;&lt;span&gt;JLabel&amp;nbsp;&lt;/span&gt;&lt;span&gt;&lt;br&gt;&lt;/span&gt;&lt;span&gt;- &lt;/span&gt;&lt;span&gt;jLabel4: &lt;/span&gt;&lt;span&gt;JLabel&amp;nbsp;&lt;/span&gt;&lt;span&gt;&lt;br&gt;&lt;/span&gt;&lt;span&gt;- &lt;/span&gt;&lt;span&gt;password: &lt;/span&gt;&lt;span&gt;JPasswordField&lt;/span&gt;&lt;span&gt;&lt;br&gt;&lt;/span&gt;&lt;span&gt;- &lt;/span&gt;&lt;span&gt;signup: &lt;/span&gt;&lt;span&gt;JButton&lt;/span&gt;&lt;span&gt;&lt;br&gt;&lt;/span&gt;&lt;span&gt;- &lt;/span&gt;&lt;span&gt;username: &lt;/span&gt;&lt;span&gt;JTextField&amp;nbsp;&lt;/span&gt;&lt;/div&gt;" style="text;strokeColor=none;fillColor=none;align=left;verticalAlign=top;spacingLeft=4;spacingRight=4;overflow=hidden;rotatable=0;points=[[0,0.5],[1,0.5]];portConstraint=eastwest;whiteSpace=wrap;html=1;" parent="5-mV9dHDalzk_5O0M6KC-87" vertex="1">
          <mxGeometry y="26" width="350" height="234" as="geometry" />
        </mxCell>
        <mxCell id="5-mV9dHDalzk_5O0M6KC-91" value="&lt;span&gt;news&lt;/span&gt;" style="swimlane;fontStyle=1;align=center;verticalAlign=top;childLayout=stackLayout;horizontal=1;startSize=26;horizontalStack=0;resizeParent=1;resizeParentMax=0;resizeLast=0;collapsible=1;marginBottom=0;whiteSpace=wrap;html=1;" parent="WIyWlLk6GJQsqaUBKTNV-1" vertex="1">
          <mxGeometry x="1070" y="1820" width="240" height="330" as="geometry" />
        </mxCell>
        <mxCell id="5-mV9dHDalzk_5O0M6KC-92" value="&lt;span&gt;- &lt;/span&gt;&lt;span&gt;panel1: &lt;/span&gt;&lt;span&gt;JPanel&lt;/span&gt;&lt;span&gt;&lt;br&gt;&lt;/span&gt;&lt;span&gt;- &lt;/span&gt;&lt;span&gt;panel2: &lt;/span&gt;&lt;span&gt;JPanel&lt;/span&gt;&lt;span&gt;&lt;br&gt;&lt;/span&gt;&lt;span&gt;- &lt;/span&gt;&lt;span&gt;panel3: &lt;/span&gt;&lt;span&gt;JPanel&lt;/span&gt;&lt;span&gt;&lt;br&gt;&lt;/span&gt;&lt;span&gt;- &lt;/span&gt;&lt;span&gt;panel4: &lt;/span&gt;&lt;span&gt;JPanel&lt;/span&gt;&lt;span&gt;&lt;br&gt;&lt;/span&gt;&lt;span&gt;- &lt;/span&gt;&lt;span&gt;panel5: &lt;/span&gt;&lt;span&gt;JPane&amp;nbsp; &amp;nbsp;&lt;/span&gt;" style="text;strokeColor=none;fillColor=none;align=left;verticalAlign=top;spacingLeft=4;spacingRight=4;overflow=hidden;rotatable=0;points=[[0,0.5],[1,0.5]];portConstraint=eastwest;whiteSpace=wrap;html=1;" parent="5-mV9dHDalzk_5O0M6KC-91" vertex="1">
          <mxGeometry y="26" width="240" height="84" as="geometry" />
        </mxCell>
        <mxCell id="5-mV9dHDalzk_5O0M6KC-93" value="" style="line;strokeWidth=1;fillColor=none;align=left;verticalAlign=middle;spacingTop=-1;spacingLeft=3;spacingRight=3;rotatable=0;labelPosition=right;points=[];portConstraint=eastwest;strokeColor=inherit;" parent="5-mV9dHDalzk_5O0M6KC-91" vertex="1">
          <mxGeometry y="110" width="240" height="8" as="geometry" />
        </mxCell>
        <mxCell id="5-mV9dHDalzk_5O0M6KC-94" value="&lt;span&gt;+ &lt;/span&gt;&lt;span&gt;news() &lt;/span&gt;&lt;span&gt;throws &lt;/span&gt;&lt;span&gt;IOException&lt;/span&gt;&lt;span&gt;&lt;br&gt;&lt;/span&gt;&lt;span&gt;+ &lt;/span&gt;&lt;span&gt;postComp(post: &lt;/span&gt;&lt;span&gt;Post): &lt;/span&gt;&lt;span&gt;JPanel&lt;/span&gt;&lt;span&gt;&lt;br&gt;&lt;/span&gt;&lt;span&gt;+ &lt;/span&gt;&lt;span&gt;sroryComp(story: &lt;/span&gt;&lt;span&gt;Story): &lt;/span&gt;&lt;span&gt;JPanel&lt;/span&gt;&lt;span&gt;&lt;br&gt;&lt;/span&gt;&lt;span&gt;+ &lt;/span&gt;&lt;span&gt;friendComp(friend: &lt;/span&gt;&lt;span&gt;User): &lt;/span&gt;&lt;span&gt;JPanel&lt;/span&gt;&lt;span&gt;&lt;br&gt;&lt;/span&gt;&lt;span&gt;+ &lt;/span&gt;&lt;span&gt;refreshContent(): &lt;/span&gt;&lt;span&gt;void&amp;nbsp;&lt;/span&gt;&lt;span&gt;&lt;br&gt;&lt;/span&gt;&lt;span&gt;+ &lt;/span&gt;&lt;span&gt;createStyledButton(text: &lt;/span&gt;&lt;span&gt;String): &lt;/span&gt;&lt;span&gt;JButton&amp;nbsp;&lt;/span&gt;&lt;span&gt;&lt;br&gt;&lt;/span&gt;&lt;span&gt;+ &lt;/span&gt;&lt;span&gt;main(args: &lt;/span&gt;&lt;span&gt;String[]): &lt;/span&gt;&lt;span&gt;void&amp;nbsp;&lt;/span&gt;&lt;span&gt;&lt;br&gt;&lt;/span&gt;&lt;span&gt;&lt;br&gt;&lt;/span&gt;&lt;span&gt;&amp;nbsp; &amp;lt;&amp;lt;Swing &lt;/span&gt;&lt;span&gt;Components&amp;gt;&amp;gt;&amp;nbsp;&lt;/span&gt;&lt;span&gt;&lt;br&gt;&lt;/span&gt;&lt;span&gt;- &lt;/span&gt;&lt;span&gt;button1: &lt;/span&gt;&lt;span&gt;JButton&amp;nbsp;&lt;/span&gt;&lt;span&gt;&lt;br&gt;&lt;/span&gt;&lt;span&gt;- &lt;/span&gt;&lt;span&gt;refreshButton: &lt;/span&gt;&lt;span&gt;JButton&amp;nbsp;&lt;/span&gt;&lt;span&gt;&lt;br&gt;&lt;/span&gt;&lt;span&gt;- &lt;/span&gt;&lt;span&gt;button3: &lt;/span&gt;&lt;span&gt;JButton&amp;nbsp;&lt;/span&gt;&lt;span&gt;&lt;br&gt;&lt;/span&gt;&lt;span&gt;- &lt;/span&gt;&lt;span&gt;tabbedPane: &lt;/span&gt;&lt;span&gt;JTabbedPane&amp;nbsp;&lt;/span&gt;&lt;span&gt;&lt;br&gt;&lt;/span&gt;&lt;span&gt;- &lt;/span&gt;&lt;span&gt;buttonPanel: &lt;/span&gt;&lt;span&gt;JPanel&lt;/span&gt;" style="text;strokeColor=none;fillColor=none;align=left;verticalAlign=top;spacingLeft=4;spacingRight=4;overflow=hidden;rotatable=0;points=[[0,0.5],[1,0.5]];portConstraint=eastwest;whiteSpace=wrap;html=1;" parent="5-mV9dHDalzk_5O0M6KC-91" vertex="1">
          <mxGeometry y="118" width="240" height="212" as="geometry" />
        </mxCell>
        <mxCell id="5-mV9dHDalzk_5O0M6KC-95" value="WelcomeFrame  " style="swimlane;fontStyle=1;align=center;verticalAlign=top;childLayout=stackLayout;horizontal=1;startSize=26;horizontalStack=0;resizeParent=1;resizeParentMax=0;resizeLast=0;collapsible=1;marginBottom=0;whiteSpace=wrap;html=1;" parent="WIyWlLk6GJQsqaUBKTNV-1" vertex="1">
          <mxGeometry x="600" y="1880" width="350" height="170" as="geometry" />
        </mxCell>
        <mxCell id="5-mV9dHDalzk_5O0M6KC-98" value="&lt;span&gt;+ &lt;/span&gt;&lt;span&gt;WelcomeFrame()&lt;/span&gt;&lt;span&gt;&lt;br&gt;&lt;/span&gt;&lt;span&gt;&amp;nbsp;&lt;/span&gt;&lt;span&gt;- &lt;/span&gt;&lt;span&gt;initCustomComponents(): &lt;/span&gt;&lt;span&gt;void&lt;/span&gt;&lt;span&gt;&lt;br&gt;&lt;/span&gt;&lt;span&gt;&amp;nbsp;&lt;/span&gt;&lt;span&gt;- &lt;/span&gt;&lt;span&gt;loginActionPerformed(evt: &lt;/span&gt;&lt;span&gt;java.awt.event.ActionEvent): &lt;/span&gt;&lt;span&gt;void&lt;/span&gt;&lt;span&gt;&lt;br&gt;&lt;/span&gt;&lt;span&gt;&amp;nbsp;&lt;/span&gt;&lt;span&gt;+ &lt;/span&gt;&lt;span&gt;main(args: &lt;/span&gt;&lt;span&gt;String[]): &lt;/span&gt;&lt;span&gt;void&lt;/span&gt;&lt;div&gt;&lt;span&gt;&lt;br&gt;&lt;/span&gt;&lt;span&gt;&amp;nbsp; &amp;nbsp;&amp;lt;&amp;lt;Swing &lt;/span&gt;&lt;span&gt;Components&amp;gt;&amp;gt;&lt;/span&gt;&lt;span&gt;&lt;br&gt;&lt;/span&gt;&lt;span&gt;- &lt;/span&gt;&lt;span&gt;jLabel1: &lt;/span&gt;&lt;span&gt;JLabel&lt;/span&gt;&lt;span&gt;&lt;br&gt;&lt;/span&gt;&lt;span&gt;- &lt;/span&gt;&lt;span&gt;login: &lt;/span&gt;&lt;span&gt;JButton&amp;nbsp;&lt;/span&gt;&lt;span&gt;&lt;br&gt;&lt;/span&gt;&lt;span&gt;- &lt;/span&gt;&lt;span&gt;signup: &lt;/span&gt;&lt;span&gt;JButton&amp;nbsp; &amp;nbsp;&lt;/span&gt;&lt;/div&gt;" style="text;strokeColor=none;fillColor=none;align=left;verticalAlign=top;spacingLeft=4;spacingRight=4;overflow=hidden;rotatable=0;points=[[0,0.5],[1,0.5]];portConstraint=eastwest;whiteSpace=wrap;html=1;" parent="5-mV9dHDalzk_5O0M6KC-95" vertex="1">
          <mxGeometry y="26" width="350" height="144" as="geometry" />
        </mxCell>
      </root>
    </mxGraphModel>
  </diagram>
</mxfile>
